<?xml version="1.0" encoding="UTF-8"?>
<svg width="99px" height="99px" viewBox="0 0 99 99" version="1.1" xmlns="http://www.w3.org/2000/svg" xmlns:xlink="http://www.w3.org/1999/xlink">
    <g id="NEXT.exchange-logo" stroke="none" stroke-width="1" fill="none" fill-rule="evenodd" opacity="0.188662574">
        <g id="Custom-Preset" transform="translate(-537.000000, -2591.000000)">
            <g id="Group-4" transform="translate(537.000000, 2591.000000)">
                <rect id="Rectangle" stroke="#00048B" fill="#080FF2" x="0.5" y="0.5" width="98" height="98" rx="15"></rect>
                <g id="NEXT.exchange_logo_SVG" transform="translate(17.372356, 12.276029)" fill="#FFFFFF" fill-rule="nonzero">
                    <g id="Group" transform="translate(17.749522, 53.615853) scale(-1, 1) rotate(51.853422) translate(-17.749522, -53.615853) translate(-3.635733, 47.842474)">
                        <polygon id="Path" points="9.34597104 4.09591645e-14 42.7705094 4.09591645e-14 33.3789905 11.546757 4.25514749e-15 11.4907562"></polygon>
                    </g>
                    <g id="Group" transform="translate(18.127644, 19.223971) scale(-1, 1) translate(-18.127644, -19.223971) translate(0.627644, 6.723971)">
                        <polygon id="Path" points="19.7967273 0 35 0 14.9662053 25 0 25"></polygon>
                    </g>
                    <g id="Group" transform="translate(52.058803, 15.674476) scale(-1, 1) rotate(127.767559) translate(-52.058803, -15.674476) translate(43.227146, 1.480830)">
                        <polygon id="Path" points="5.09767052 -2.11525763e-15 17.6633137 -2.11525763e-15 9.47954605 28.3872934 -8.73512417e-14 16.5716235"></polygon>
                    </g>
                    <g id="Group" transform="translate(50.276107, 57.290179) scale(-1, 1) rotate(125.913506) translate(-50.276107, -57.290179) translate(34.452854, 51.231266)">
                        <polygon id="Path" points="3.58143787 2.11296403e-13 22.7811762 2.11296403e-13 31.6465066 11.823842 -3.63442397e-14 12.1178253"></polygon>
                    </g>
                </g>
            </g>
        </g>
    </g>
</svg>